<svg width="78" height="78" viewBox="0 0 78 78" fill="none" xmlns="http://www.w3.org/2000/svg">
<rect width="78" height="78" fill="#1E1E1E"/>
<rect width="105" height="101" transform="translate(-13 -11)" fill="white" fill-opacity="0.07"/>
<g clip-path="url(#clip0_261_729)">
<path d="M0 89V-3.04001H14.04V89H0ZM18.72 89V-3.04001H23.4V89H18.72ZM28.08 89V-3.04001H37.44V89H28.08ZM51.4922 89V-3.04001H56.1722V89H51.4922ZM70.2122 89V-3.04001H74.8922V89H70.2122ZM79.5722 89V-3.04001H88.9322V89H79.5722ZM0 245V152.96H9.36V245H0ZM23.4 245V152.96H28.08V245H23.4ZM32.76 245V152.96H46.8V245H32.76ZM51.4922 245V152.96H60.8522V245H51.4922ZM74.8922 245V152.96H79.5722V245H74.8922ZM93.6122 245V152.96H98.2922V245H93.6122ZM0 401V308.96H9.36V401H0ZM23.4 401V308.96H28.08V401H23.4ZM42.12 401V308.96H46.8V401H42.12ZM51.4922 401V308.96H56.1722V401H51.4922ZM70.2122 401V308.96H84.2522V401H70.2122ZM88.9322 401V308.96H98.2922V401H88.9322ZM0 557V464.96H4.68V557H0ZM9.36 557V464.96H18.72V557H9.36ZM23.4 557V464.96H37.44V557H23.4ZM51.4922 557V464.96H56.1722V557H51.4922ZM70.2122 557V464.96H74.8922V557H70.2122ZM79.5722 557V464.96H88.9322V557H79.5722ZM0 713V620.96H4.68V713H0ZM23.4 713V620.96H32.76V713H23.4ZM37.44 713V620.96H42.12V713H37.44ZM51.4922 713V620.96H60.8522V713H51.4922ZM74.8922 713V620.96H79.5722V713H74.8922ZM93.6122 713V620.96H98.2922V713H93.6122ZM0 869V776.96H4.68V869H0ZM18.72 869V776.96H23.4V869H18.72ZM37.44 869V776.96H46.8V869H37.44ZM51.4922 869V776.96H60.8522V869H51.4922ZM74.8922 869V776.96H79.5722V869H74.8922ZM93.6122 869V776.96H98.2922V869H93.6122ZM0 1025V932.96H4.68V1025H0ZM18.72 1025V932.96H23.4V1025H18.72ZM37.44 1025V932.96H46.8V1025H37.44ZM51.4922 1025V932.96H56.1722V1025H51.4922ZM70.2122 1025V932.96H88.9322V1025H70.2122ZM93.6122 1025V932.96H98.2922V1025H93.6122Z" fill="black"/>
<path d="M34.0246 40.5318V60.375H23.5414V11.9276H42.1865C48.3766 11.9276 51.4716 15.2224 51.4716 21.8118V27.4278C51.4716 31.4214 50.0489 33.9673 47.2035 35.0656C49.6995 35.9641 50.9475 38.0108 50.9475 41.2057V60.375H40.4643V42.0294C40.4643 41.031 39.99 40.5318 39.0415 40.5318H34.0246ZM34.0246 19.0412V33.1936H39.5657C39.9651 33.1936 40.2895 33.0438 40.5391 32.7443C40.8387 32.4448 40.9884 32.0953 40.9884 31.696V20.5388C40.9884 20.1395 40.8387 19.79 40.5391 19.4905C40.2895 19.191 39.9651 19.0412 39.5657 19.0412H34.0246Z" fill="white" fill-opacity="0.9"/>
</g>
<defs>
<clipPath id="clip0_261_729">
<rect width="78" height="78" rx="10" fill="white"/>
</clipPath>
</defs>
</svg>
